<mxfile host="app.diagrams.net" modified="2024-05-28T02:13:02.408Z" agent="Mozilla/5.0 (Windows NT 10.0; Win64; x64) AppleWebKit/537.36 (KHTML, like Gecko) Chrome/125.0.0.0 Safari/537.36" etag="iokouLWl2btWyrR3gJjA" version="24.4.8" type="device">
  <diagram name="Page-1" id="929967ad-93f9-6ef4-fab6-5d389245f69c">
    <mxGraphModel dx="2633.5" dy="460" grid="1" gridSize="10" guides="1" tooltips="1" connect="1" arrows="1" fold="1" page="1" pageScale="1.5" pageWidth="1169" pageHeight="826" background="none" math="0" shadow="0">
      <root>
        <mxCell id="0" style=";html=1;" />
        <mxCell id="1" style=";html=1;" parent="0" />
        <mxCell id="1672d66443f91eb5-23" value="Digagrama UML iPhone" style="text;strokeColor=none;fillColor=none;html=1;fontSize=24;fontStyle=1;verticalAlign=middle;align=center;" parent="1" vertex="1">
          <mxGeometry x="-170" y="50" width="1510" height="40" as="geometry" />
        </mxCell>
        <mxCell id="Xw3A9ZLZ8eD9tPaE37Tw-33" value="" style="group;labelBorderColor=default;textShadow=1;" parent="1" vertex="1" connectable="0">
          <mxGeometry x="-510" y="190" width="200" height="140" as="geometry" />
        </mxCell>
        <mxCell id="Xw3A9ZLZ8eD9tPaE37Tw-22" value="" style="rounded=0;whiteSpace=wrap;html=1;fontStyle=1;labelBorderColor=default;" parent="Xw3A9ZLZ8eD9tPaE37Tw-33" vertex="1">
          <mxGeometry x="21.052631578947366" width="178.94736842105263" height="140" as="geometry" />
        </mxCell>
        <mxCell id="Xw3A9ZLZ8eD9tPaE37Tw-23" value="" style="verticalAlign=bottom;html=1;endArrow=none;edgeStyle=none;labelBackgroundColor=none;fontSize=10;strokeWidth=2;rounded=0;entryX=0.996;entryY=0.359;entryDx=0;entryDy=0;entryPerimeter=0;" parent="Xw3A9ZLZ8eD9tPaE37Tw-33" target="Xw3A9ZLZ8eD9tPaE37Tw-22" edge="1">
          <mxGeometry relative="1" as="geometry">
            <mxPoint x="21.052631578947366" y="50" as="sourcePoint" />
            <mxPoint x="231.57894736842104" y="50" as="targetPoint" />
            <Array as="points">
              <mxPoint x="136.8421052631579" y="50" />
            </Array>
          </mxGeometry>
        </mxCell>
        <mxCell id="Xw3A9ZLZ8eD9tPaE37Tw-25" value="" style="verticalAlign=bottom;html=1;endArrow=none;edgeStyle=none;labelBackgroundColor=none;fontSize=10;strokeWidth=2;rounded=0;entryX=1;entryY=0.5;entryDx=0;entryDy=0;" parent="Xw3A9ZLZ8eD9tPaE37Tw-33" edge="1">
          <mxGeometry relative="1" as="geometry">
            <mxPoint x="21.57894736842105" y="60" as="sourcePoint" />
            <mxPoint x="199.4736842105263" y="60.339999999999975" as="targetPoint" />
            <mxPoint as="offset" />
          </mxGeometry>
        </mxCell>
        <mxCell id="Xw3A9ZLZ8eD9tPaE37Tw-26" value="&amp;lt;&amp;lt;Interface&amp;gt;&amp;gt;&lt;div&gt;&lt;b&gt;Reprodutor Musical&lt;/b&gt;&lt;/div&gt;" style="text;html=1;align=center;verticalAlign=middle;whiteSpace=wrap;rounded=0;" parent="Xw3A9ZLZ8eD9tPaE37Tw-33" vertex="1">
          <mxGeometry x="47.368421052631575" y="10" width="126.3157894736842" height="30" as="geometry" />
        </mxCell>
        <mxCell id="Xw3A9ZLZ8eD9tPaE37Tw-30" value="+ tocar() : Void" style="text;html=1;align=center;verticalAlign=middle;whiteSpace=wrap;rounded=0;fontStyle=1" parent="Xw3A9ZLZ8eD9tPaE37Tw-33" vertex="1">
          <mxGeometry x="15.789473684210526" y="70" width="115.78947368421052" height="30" as="geometry" />
        </mxCell>
        <mxCell id="Xw3A9ZLZ8eD9tPaE37Tw-31" value="+ pausar() : Void" style="text;html=1;align=center;verticalAlign=middle;whiteSpace=wrap;rounded=0;fontStyle=1" parent="Xw3A9ZLZ8eD9tPaE37Tw-33" vertex="1">
          <mxGeometry x="26.31578947368421" y="90" width="105.26315789473684" height="30" as="geometry" />
        </mxCell>
        <mxCell id="Xw3A9ZLZ8eD9tPaE37Tw-32" value="+ selecionarMusica() : Void" style="text;html=1;align=center;verticalAlign=middle;whiteSpace=wrap;rounded=0;fontStyle=1" parent="Xw3A9ZLZ8eD9tPaE37Tw-33" vertex="1">
          <mxGeometry x="15.79" y="110" width="190" height="30" as="geometry" />
        </mxCell>
        <mxCell id="Xw3A9ZLZ8eD9tPaE37Tw-34" value="" style="group;labelBorderColor=default;" parent="1" vertex="1" connectable="0">
          <mxGeometry x="-310" y="190" width="220" height="140" as="geometry" />
        </mxCell>
        <mxCell id="Xw3A9ZLZ8eD9tPaE37Tw-35" value="" style="rounded=0;whiteSpace=wrap;html=1;fontStyle=1" parent="Xw3A9ZLZ8eD9tPaE37Tw-34" vertex="1">
          <mxGeometry x="20" width="200" height="140" as="geometry" />
        </mxCell>
        <mxCell id="Xw3A9ZLZ8eD9tPaE37Tw-36" value="" style="verticalAlign=bottom;html=1;endArrow=none;edgeStyle=none;labelBackgroundColor=none;fontSize=10;strokeWidth=2;rounded=0;entryX=0.996;entryY=0.359;entryDx=0;entryDy=0;entryPerimeter=0;" parent="Xw3A9ZLZ8eD9tPaE37Tw-34" target="Xw3A9ZLZ8eD9tPaE37Tw-35" edge="1">
          <mxGeometry relative="1" as="geometry">
            <mxPoint x="20" y="50" as="sourcePoint" />
            <mxPoint x="220" y="50" as="targetPoint" />
            <Array as="points">
              <mxPoint x="130" y="50" />
            </Array>
          </mxGeometry>
        </mxCell>
        <mxCell id="Xw3A9ZLZ8eD9tPaE37Tw-37" value="" style="verticalAlign=bottom;html=1;endArrow=none;edgeStyle=none;labelBackgroundColor=none;fontSize=10;strokeWidth=2;rounded=0;entryX=0.999;entryY=0.425;entryDx=0;entryDy=0;entryPerimeter=0;" parent="Xw3A9ZLZ8eD9tPaE37Tw-34" target="Xw3A9ZLZ8eD9tPaE37Tw-35" edge="1">
          <mxGeometry relative="1" as="geometry">
            <mxPoint x="20.5" y="60" as="sourcePoint" />
            <mxPoint x="189.5" y="60.339999999999975" as="targetPoint" />
            <mxPoint as="offset" />
          </mxGeometry>
        </mxCell>
        <mxCell id="Xw3A9ZLZ8eD9tPaE37Tw-38" value="&amp;lt;&amp;lt;Interface&amp;gt;&amp;gt;&lt;div&gt;&lt;b&gt;Aparelho Telefonico&lt;/b&gt;&lt;/div&gt;" style="text;html=1;align=center;verticalAlign=middle;whiteSpace=wrap;rounded=0;" parent="Xw3A9ZLZ8eD9tPaE37Tw-34" vertex="1">
          <mxGeometry x="50" y="10" width="120" height="30" as="geometry" />
        </mxCell>
        <mxCell id="Xw3A9ZLZ8eD9tPaE37Tw-39" value="+ ligar() : Void" style="text;html=1;align=center;verticalAlign=middle;whiteSpace=wrap;rounded=0;fontStyle=1" parent="Xw3A9ZLZ8eD9tPaE37Tw-34" vertex="1">
          <mxGeometry x="10" y="70" width="110" height="30" as="geometry" />
        </mxCell>
        <mxCell id="Xw3A9ZLZ8eD9tPaE37Tw-40" value="+&amp;nbsp; atender() : Void" style="text;html=1;align=center;verticalAlign=middle;whiteSpace=wrap;rounded=0;fontStyle=1" parent="Xw3A9ZLZ8eD9tPaE37Tw-34" vertex="1">
          <mxGeometry y="90" width="150" height="30" as="geometry" />
        </mxCell>
        <mxCell id="Xw3A9ZLZ8eD9tPaE37Tw-41" value="&amp;nbsp; &amp;nbsp; &amp;nbsp; + selecionarCorreiodeVoz() : Void" style="text;html=1;align=center;verticalAlign=middle;whiteSpace=wrap;rounded=0;fontStyle=1" parent="Xw3A9ZLZ8eD9tPaE37Tw-34" vertex="1">
          <mxGeometry y="110" width="220" height="30" as="geometry" />
        </mxCell>
        <mxCell id="Xw3A9ZLZ8eD9tPaE37Tw-42" value="" style="group" parent="1" vertex="1" connectable="0">
          <mxGeometry x="-40" y="200" width="230" height="140" as="geometry" />
        </mxCell>
        <mxCell id="Xw3A9ZLZ8eD9tPaE37Tw-56" value="" style="group" parent="Xw3A9ZLZ8eD9tPaE37Tw-42" vertex="1" connectable="0">
          <mxGeometry x="-29.99947368421053" y="-10" width="230" height="140" as="geometry" />
        </mxCell>
        <mxCell id="Xw3A9ZLZ8eD9tPaE37Tw-43" value="" style="rounded=0;whiteSpace=wrap;html=1;fontStyle=1" parent="Xw3A9ZLZ8eD9tPaE37Tw-56" vertex="1">
          <mxGeometry width="230" height="140" as="geometry" />
        </mxCell>
        <mxCell id="Xw3A9ZLZ8eD9tPaE37Tw-44" value="" style="verticalAlign=bottom;html=1;endArrow=none;edgeStyle=none;labelBackgroundColor=none;fontSize=10;strokeWidth=2;rounded=0;entryX=0.996;entryY=0.359;entryDx=0;entryDy=0;entryPerimeter=0;" parent="Xw3A9ZLZ8eD9tPaE37Tw-56" target="Xw3A9ZLZ8eD9tPaE37Tw-43" edge="1">
          <mxGeometry relative="1" as="geometry">
            <mxPoint y="50" as="sourcePoint" />
            <mxPoint x="242.10526315789474" y="50" as="targetPoint" />
            <Array as="points">
              <mxPoint x="133.1578947368421" y="50" />
            </Array>
          </mxGeometry>
        </mxCell>
        <mxCell id="Xw3A9ZLZ8eD9tPaE37Tw-45" value="" style="verticalAlign=bottom;html=1;endArrow=none;edgeStyle=none;labelBackgroundColor=none;fontSize=10;strokeWidth=2;rounded=0;entryX=0.998;entryY=0.421;entryDx=0;entryDy=0;entryPerimeter=0;" parent="Xw3A9ZLZ8eD9tPaE37Tw-56" target="Xw3A9ZLZ8eD9tPaE37Tw-43" edge="1">
          <mxGeometry relative="1" as="geometry">
            <mxPoint x="0.6052631578947363" y="60" as="sourcePoint" />
            <mxPoint x="204.99947368421053" y="60" as="targetPoint" />
            <mxPoint as="offset" />
          </mxGeometry>
        </mxCell>
        <mxCell id="Xw3A9ZLZ8eD9tPaE37Tw-46" value="&amp;lt;&amp;lt;Interface&amp;gt;&amp;gt;&lt;div&gt;&lt;b&gt;Navegador na Internet&lt;/b&gt;&lt;/div&gt;" style="text;html=1;align=center;verticalAlign=middle;whiteSpace=wrap;rounded=0;" parent="Xw3A9ZLZ8eD9tPaE37Tw-56" vertex="1">
          <mxGeometry x="21.184210526315788" y="10" width="163.42105263157896" height="30" as="geometry" />
        </mxCell>
        <mxCell id="Xw3A9ZLZ8eD9tPaE37Tw-47" value="+ exibirPagina() : Void" style="text;html=1;align=center;verticalAlign=middle;whiteSpace=wrap;rounded=0;fontStyle=1" parent="Xw3A9ZLZ8eD9tPaE37Tw-56" vertex="1">
          <mxGeometry x="5.784736842105264" y="70" width="133.1578947368421" height="30" as="geometry" />
        </mxCell>
        <mxCell id="Xw3A9ZLZ8eD9tPaE37Tw-48" value="+ adicionarNovaAba() : Void" style="text;html=1;align=center;verticalAlign=middle;whiteSpace=wrap;rounded=0;fontStyle=1" parent="Xw3A9ZLZ8eD9tPaE37Tw-56" vertex="1">
          <mxGeometry x="5.78" y="90" width="170" height="30" as="geometry" />
        </mxCell>
        <mxCell id="Xw3A9ZLZ8eD9tPaE37Tw-49" value="+ atualizarPagina() : Void" style="text;html=1;align=center;verticalAlign=middle;whiteSpace=wrap;rounded=0;fontStyle=1" parent="Xw3A9ZLZ8eD9tPaE37Tw-56" vertex="1">
          <mxGeometry x="5.78" y="110" width="150" height="30" as="geometry" />
        </mxCell>
        <mxCell id="Xw3A9ZLZ8eD9tPaE37Tw-62" value="" style="group;labelBorderColor=default;fillColor=#dae8fc;strokeColor=#6c8ebf;" parent="1" vertex="1" connectable="0">
          <mxGeometry x="-310" y="450" width="220" height="100" as="geometry" />
        </mxCell>
        <mxCell id="Xw3A9ZLZ8eD9tPaE37Tw-65" value="" style="verticalAlign=bottom;html=1;endArrow=none;edgeStyle=none;labelBackgroundColor=none;fontSize=10;strokeWidth=2;rounded=0;entryX=0.999;entryY=0.425;entryDx=0;entryDy=0;entryPerimeter=0;labelBorderColor=none;" parent="Xw3A9ZLZ8eD9tPaE37Tw-62" edge="1">
          <mxGeometry relative="1" as="geometry">
            <mxPoint y="41.43" as="sourcePoint" />
            <mxPoint x="220.00000000000017" y="40.00142857142857" as="targetPoint" />
            <Array as="points">
              <mxPoint x="120.2" y="40.35857142857142" />
            </Array>
            <mxPoint as="offset" />
          </mxGeometry>
        </mxCell>
        <mxCell id="Xw3A9ZLZ8eD9tPaE37Tw-70" value="" style="verticalAlign=bottom;html=1;endArrow=none;edgeStyle=none;labelBackgroundColor=none;fontSize=10;strokeWidth=2;rounded=0;labelBorderColor=none;" parent="Xw3A9ZLZ8eD9tPaE37Tw-62" edge="1">
          <mxGeometry relative="1" as="geometry">
            <mxPoint y="60" as="sourcePoint" />
            <mxPoint x="220" y="60" as="targetPoint" />
            <Array as="points">
              <mxPoint x="109.65" y="60.4" />
            </Array>
            <mxPoint as="offset" />
          </mxGeometry>
        </mxCell>
        <mxCell id="Xw3A9ZLZ8eD9tPaE37Tw-66" value="&lt;div&gt;&lt;b&gt;Aparelho Telefonico&lt;/b&gt;&lt;/div&gt;" style="text;html=1;align=center;verticalAlign=middle;whiteSpace=wrap;rounded=0;labelBorderColor=none;" parent="Xw3A9ZLZ8eD9tPaE37Tw-62" vertex="1">
          <mxGeometry x="50" y="10.002857142857124" width="120.00000000000001" height="21.428571428571427" as="geometry" />
        </mxCell>
        <mxCell id="Xw3A9ZLZ8eD9tPaE37Tw-72" value="" style="endArrow=classic;html=1;rounded=0;entryX=0.778;entryY=1.04;entryDx=0;entryDy=0;entryPerimeter=0;" parent="1" target="Xw3A9ZLZ8eD9tPaE37Tw-32" edge="1">
          <mxGeometry width="50" height="50" relative="1" as="geometry">
            <mxPoint x="-200" y="440" as="sourcePoint" />
            <mxPoint x="-150" y="390" as="targetPoint" />
          </mxGeometry>
        </mxCell>
        <mxCell id="Xw3A9ZLZ8eD9tPaE37Tw-73" value="" style="endArrow=classic;html=1;rounded=0;entryX=0.5;entryY=1;entryDx=0;entryDy=0;" parent="1" target="Xw3A9ZLZ8eD9tPaE37Tw-41" edge="1">
          <mxGeometry width="50" height="50" relative="1" as="geometry">
            <mxPoint x="-200" y="440" as="sourcePoint" />
            <mxPoint x="-150" y="390" as="targetPoint" />
          </mxGeometry>
        </mxCell>
        <mxCell id="Xw3A9ZLZ8eD9tPaE37Tw-74" value="" style="endArrow=classic;html=1;rounded=0;entryX=0.69;entryY=1.04;entryDx=0;entryDy=0;entryPerimeter=0;" parent="1" target="Xw3A9ZLZ8eD9tPaE37Tw-49" edge="1">
          <mxGeometry width="50" height="50" relative="1" as="geometry">
            <mxPoint x="-200" y="440" as="sourcePoint" />
            <mxPoint x="-150" y="390" as="targetPoint" />
          </mxGeometry>
        </mxCell>
      </root>
    </mxGraphModel>
  </diagram>
</mxfile>
